<?xml version="1.0" encoding="UTF-8" standalone="no"?>
<!DOCTYPE svg PUBLIC "-//W3C//DTD SVG 1.1//EN" "http://www.w3.org/Graphics/SVG/1.1/DTD/svg11.dtd">
<!-- Created with Vectornator (http://vectornator.io/) -->
<svg stroke-miterlimit="10" style="fill-rule:nonzero;clip-rule:evenodd;stroke-linecap:round;stroke-linejoin:round;" version="1.1" viewBox="0 0 180 180" xml:space="preserve" xmlns="http://www.w3.org/2000/svg" xmlns:xlink="http://www.w3.org/1999/xlink">
<defs/>
<g id="Layer-1">
<path d="M141.656 31.4062C139.99 31.2396 138.399 31.3229 136.844 31.6562C135.288 31.9896 133.712 32.6493 132.156 33.5938C130.601 34.5382 129.351 35.5451 128.406 36.6562C127.462 37.7674 126.712 39.0174 126.156 40.4062C125.601 41.7951 120.344 42.5 110.344 42.5C100.344 42.5 94.0556 42.5451 91.5 42.6562C88.9444 42.7674 86.4896 43.0555 84.1562 43.5C81.8229 43.9444 79.4827 44.6493 77.0938 45.5938C74.7049 46.5382 72.7882 47.4167 71.3438 48.25C69.8993 49.0833 68.4444 50.0382 67 51.0938C65.5556 52.1493 63.6007 53.8993 61.1562 56.3438C58.7118 58.7882 57.0451 60.5833 56.1562 61.75C55.2674 62.9167 54.184 64.5382 52.9062 66.5938C51.6285 68.6493 50.5451 70.6111 49.6562 72.5C48.7674 74.3889 48.0555 76.1007 47.5 77.6562C46.9444 79.2118 46.4445 80.8715 46 82.5938C45.5556 84.316 45.184 86.1111 44.9062 88C44.6285 89.8889 44.4618 91.9271 44.4062 94.0938C44.3507 96.2604 44.3889 97.9722 44.5 99.25C44.6111 100.528 44.816 101.906 45.0938 103.406C45.3715 104.906 45.7118 106.399 46.1562 107.844C46.6007 109.288 47.2674 110.955 48.1562 112.844C49.0451 114.733 49.75 115.983 50.25 116.594C50.75 117.205 51.2951 117.628 51.9062 117.906C52.5174 118.184 58.1389 118.306 68.75 118.25C79.3611 118.194 86.066 118.073 88.8438 117.906C91.6215 117.74 93.6285 117.444 94.9062 117C96.184 116.556 97.3056 116.056 98.25 115.5C99.1944 114.944 100.444 114.073 102 112.906C103.556 111.74 104.806 110.733 105.75 109.844C106.694 108.955 107.156 108.455 107.156 108.344C107.156 108.288 107.156 108.212 107.156 108.156C103.517 108.156 99.8889 108.156 96.25 108.156C92.6111 108.156 88.9827 108.156 85.3438 108.156C87.3438 104.49 89.3437 100.823 91.3438 97.1562C95.3438 89.8229 98.0173 84.7396 99.4062 81.9062C100.795 79.0729 101.962 77.1493 102.906 76.0938C103.851 75.0382 104.722 74.2882 105.5 73.8438C106.278 73.3993 107.111 73.0278 108 72.75C108.889 72.4722 110.806 72.2222 113.75 72C116.694 71.7778 118.611 71.6945 119.5 71.75C120.389 71.8056 121.139 71.934 121.75 72.1562C122.361 72.3785 122.899 72.7882 123.344 73.3438C123.788 73.8993 124.167 74.6493 124.5 75.5938C124.833 76.5382 125.167 77.9549 125.5 79.8438C125.833 81.7326 125.962 83.8229 125.906 86.1562C125.851 88.4896 125.639 90.6493 125.25 92.5938C124.861 94.5382 124.278 96.5833 123.5 98.75C122.722 100.917 121.76 103.083 120.594 105.25C119.427 107.417 118.094 109.5 116.594 111.5C115.094 113.5 113.601 115.212 112.156 116.656C110.712 118.101 108.788 119.684 106.344 121.406C103.899 123.128 101.861 124.372 100.25 125.094C98.6389 125.816 97.1389 126.361 95.75 126.75C94.3611 127.139 92.2327 127.434 89.3438 127.656C86.4549 127.878 80.5451 128.038 71.6562 128.094C62.7674 128.149 57.4271 128.111 55.5938 128C53.7604 127.889 52.6007 127.267 52.1562 126.156C51.7118 125.045 51.25 124.128 50.75 123.406C50.25 122.684 49.6215 121.934 48.8438 121.156C48.066 120.378 47.066 119.628 45.8438 118.906C44.6215 118.184 43.1215 117.639 41.3438 117.25C39.566 116.861 37.816 116.778 36.0938 117C34.3715 117.222 33.0382 117.517 32.0938 117.906C31.1493 118.295 30.2326 118.795 29.3438 119.406C28.4549 120.017 27.6215 120.76 26.8438 121.594C26.066 122.427 25.2778 123.594 24.5 125.094C23.7222 126.594 23.2222 127.889 23 129C22.7778 130.111 22.7326 131.483 22.8438 133.094C22.9549 134.705 23.1285 135.955 23.4062 136.844C23.684 137.733 24.2604 138.823 25.0938 140.156C25.9271 141.49 26.8437 142.611 27.8438 143.5C28.8437 144.389 29.8507 145.101 30.9062 145.656C31.9618 146.212 33.0382 146.628 34.0938 146.906C35.1493 147.184 36.4445 147.344 38 147.344C39.5556 147.344 41.0104 147.139 42.3438 146.75C43.6771 146.361 44.9271 145.816 46.0938 145.094C47.2604 144.372 48.2674 143.538 49.1562 142.594C50.0451 141.649 50.7882 140.611 51.3438 139.5C51.8993 138.389 57.8229 137.844 69.1562 137.844C80.4896 137.844 87.6944 137.722 90.75 137.5C93.8056 137.278 96.434 136.861 98.6562 136.25C100.878 135.639 102.962 134.889 104.906 134C106.851 133.111 108.677 132.149 110.344 131.094C112.01 130.038 113.556 128.917 115 127.75C116.444 126.583 118.278 124.795 120.5 122.406C122.722 120.017 124.677 117.594 126.344 115.094C128.01 112.594 129.51 109.889 130.844 107C132.177 104.111 133.26 101.111 134.094 98C134.927 94.8889 135.434 92.3438 135.656 90.3438C135.878 88.3437 136 86.6389 136 85.25C136 83.8611 135.795 81.8229 135.406 79.1562C135.017 76.4896 134.601 74.4827 134.156 73.0938C133.712 71.7049 133.167 70.2882 132.5 68.8438C131.833 67.3993 131.25 66.2396 130.75 65.4062C130.25 64.5729 129.75 63.9444 129.25 63.5C128.75 63.0556 128.288 62.7604 127.844 62.5938C127.399 62.4271 124.316 62.2674 118.594 62.1562C112.872 62.0451 106.378 62.0451 99.1562 62.1562C91.934 62.2674 87.8507 62.4271 86.9062 62.5938C85.9618 62.7604 84.9549 63.0174 83.8438 63.4062C82.7326 63.7951 81.4826 64.4167 80.0938 65.25C78.7049 66.0833 77.2882 67.2049 75.8438 68.5938C74.3993 69.9826 73.5278 70.8993 73.25 71.3438C73.1111 71.566 72.9827 71.7778 72.8438 72C76.3993 72 79.9444 72 83.5 72C87.0556 72 90.6007 72 94.1562 72C94.1562 72.0556 94.1562 72.1007 94.1562 72.1562C94.1562 72.2674 92.816 74.8507 90.0938 79.9062C87.3715 84.9618 84.8785 89.3785 82.6562 93.1562C80.434 96.934 78.9722 99.5938 78.25 101.094C77.5278 102.594 76.7327 103.889 75.8438 105C74.9549 106.111 74.0382 106.906 73.0938 107.406C72.1493 107.906 70.9062 108.278 69.4062 108.5C67.9062 108.722 66.1563 108.806 64.1562 108.75C62.1562 108.694 60.7396 108.611 59.9062 108.5C59.0729 108.389 58.3611 108.177 57.75 107.844C57.1389 107.51 56.5555 106.767 56 105.656C55.4444 104.545 54.9826 102.962 54.5938 100.906C54.2049 98.8507 54 96.9722 54 95.25C54 93.5278 54.1285 91.7396 54.4062 89.9062C54.684 88.0729 55.3437 85.6562 56.3438 82.6562C57.3437 79.6563 58.3438 77.2326 59.3438 75.3438C60.3438 73.4549 61.5104 71.5451 62.8438 69.6562C64.1771 67.7674 65.5174 66.0938 66.9062 64.5938C68.2951 63.0937 69.7882 61.684 71.3438 60.4062C72.8993 59.1285 74.1944 58.1667 75.25 57.5C76.3056 56.8333 77.8437 56.0451 79.8438 55.1562C81.8437 54.2674 83.5556 53.6771 85 53.3438C86.4444 53.0104 88.1563 52.7674 90.1562 52.6562C92.1563 52.5451 98.5729 52.5382 109.406 52.5938C120.24 52.6493 125.74 52.6945 125.906 52.75C126.073 52.8056 126.483 53.3889 127.094 54.5C127.705 55.6111 128.417 56.5729 129.25 57.4062C130.083 58.2396 130.833 58.8993 131.5 59.3438C132.167 59.7882 133.122 60.25 134.344 60.75C135.566 61.25 137.156 61.5451 139.156 61.6562C141.156 61.7674 142.816 61.6771 144.094 61.3438C145.372 61.0104 146.417 60.6007 147.25 60.1562C148.083 59.7118 149.122 58.9549 150.344 57.8438C151.566 56.7326 152.528 55.566 153.25 54.3438C153.972 53.1215 154.517 51.6215 154.906 49.8438C155.295 48.066 155.378 46.316 155.156 44.5938C154.934 42.8715 154.51 41.2951 153.844 39.9062C153.177 38.5174 152.177 37.1771 150.844 35.8438C149.51 34.5104 148.056 33.4722 146.5 32.75C144.944 32.0278 143.323 31.5729 141.656 31.4062ZM140.844 38.1562C142.177 38.2674 143.26 38.5556 144.094 39C144.927 39.4444 145.722 40.1111 146.5 41C147.278 41.8889 147.823 42.8507 148.156 43.9062C148.49 44.9618 148.611 46.1215 148.5 47.3438C148.389 48.566 148.094 49.6493 147.594 50.5938C147.094 51.5382 146.51 52.2951 145.844 52.9062C145.177 53.5174 144.184 54.0556 142.906 54.5C141.628 54.9445 140.417 55.1111 139.25 55C138.083 54.8889 137.038 54.5938 136.094 54.0938C135.149 53.5937 134.361 53.0104 133.75 52.3438C133.139 51.6771 132.601 50.7222 132.156 49.5C131.712 48.2778 131.538 47.1493 131.594 46.0938C131.649 45.0382 131.906 43.9618 132.406 42.9062C132.906 41.8507 133.611 40.934 134.5 40.1562C135.389 39.3785 136.344 38.8333 137.344 38.5C138.344 38.1667 139.51 38.0451 140.844 38.1562ZM38.8438 123.656C40.066 123.767 41.1493 124.094 42.0938 124.594C43.0382 125.094 43.8333 125.722 44.5 126.5C45.1667 127.278 45.7049 128.316 46.0938 129.594C46.4826 130.872 46.6111 132 46.5 133C46.3889 134 46.0556 135.038 45.5 136.094C44.9444 137.149 44.316 137.983 43.5938 138.594C42.8715 139.205 41.9167 139.705 40.75 140.094C39.5833 140.483 38.5 140.649 37.5 140.594C36.5 140.538 35.4618 140.25 34.4062 139.75C33.3507 139.25 32.4722 138.622 31.75 137.844C31.0278 137.066 30.4826 136.149 30.0938 135.094C29.7049 134.038 29.5382 132.878 29.5938 131.656C29.6493 130.434 29.8993 129.351 30.3438 128.406C30.7882 127.462 31.4618 126.583 32.4062 125.75C33.3507 124.917 34.3507 124.333 35.4062 124C36.4618 123.667 37.6215 123.545 38.8438 123.656Z" fill="#1fc7cf" fill-rule="nonzero" opacity="1" stroke="none"/>
</g>
</svg>
